<svg xmlns="http://www.w3.org/2000/svg" width="183.824" height="182.487" viewBox="0 0 183.824 182.487">
  <g id="Grupo_11" data-name="Grupo 11" transform="translate(-917 652)">
    <g id="Grupo_5" data-name="Grupo 5" transform="translate(983.845 -519.647)">
      <path id="Sustracción_2" data-name="Sustracción 2" d="M40.319,28.245H9.48A9.49,9.49,0,0,1,0,18.765,18.968,18.968,0,0,1,14.453.344a14.322,14.322,0,0,0,4.716,3.42,14.26,14.26,0,0,0,5.9,1.262,14.264,14.264,0,0,0,5.855-1.243,14.326,14.326,0,0,0,4.7-3.371,18.831,18.831,0,0,1,5.657,2.521A18.925,18.925,0,0,1,49.8,18.765,9.491,9.491,0,0,1,40.319,28.245Z" transform="translate(0 21.889)"/>
      <ellipse id="Elipse_3" data-name="Elipse 3" cx="11" cy="11.5" rx="11" ry="11.5" transform="translate(14.155 -0.353)"/>
    </g>
    <g id="Grupo_6" data-name="Grupo 6" transform="translate(983.845 -652)">
      <path id="Sustracción_2-2" data-name="Sustracción 2" d="M40.319,28.245H9.48A9.49,9.49,0,0,1,0,18.765,18.968,18.968,0,0,1,14.453.344a14.322,14.322,0,0,0,4.716,3.42,14.26,14.26,0,0,0,5.9,1.262,14.264,14.264,0,0,0,5.855-1.243,14.326,14.326,0,0,0,4.7-3.371,18.831,18.831,0,0,1,5.657,2.521A18.925,18.925,0,0,1,49.8,18.765,9.491,9.491,0,0,1,40.319,28.245Z" transform="translate(0 21.889)"/>
      <ellipse id="Elipse_3-2" data-name="Elipse 3" cx="11" cy="11.5" rx="11" ry="11.5" transform="translate(14.155)"/>
    </g>
    <g id="Grupo_7" data-name="Grupo 7" transform="translate(917 -585.823)">
      <path id="Sustracción_2-3" data-name="Sustracción 2" d="M40.319,28.245H9.48A9.49,9.49,0,0,1,0,18.765,18.968,18.968,0,0,1,14.453.344a14.322,14.322,0,0,0,4.716,3.42,14.26,14.26,0,0,0,5.9,1.262,14.264,14.264,0,0,0,5.855-1.243,14.326,14.326,0,0,0,4.7-3.371,18.831,18.831,0,0,1,5.657,2.521A18.925,18.925,0,0,1,49.8,18.765,9.491,9.491,0,0,1,40.319,28.245Z" transform="translate(0 21.889)"/>
      <ellipse id="Elipse_3-3" data-name="Elipse 3" cx="11" cy="11.5" rx="11" ry="11.5" transform="translate(14 -0.177)"/>
    </g>
    <g id="Grupo_8" data-name="Grupo 8" transform="translate(1051.024 -585.823)">
      <path id="Sustracción_2-4" data-name="Sustracción 2" d="M40.319,28.245H9.48A9.49,9.49,0,0,1,0,18.765,18.968,18.968,0,0,1,14.453.344a14.322,14.322,0,0,0,4.716,3.42,14.26,14.26,0,0,0,5.9,1.262,14.264,14.264,0,0,0,5.855-1.243,14.326,14.326,0,0,0,4.7-3.371,18.831,18.831,0,0,1,5.657,2.521A18.925,18.925,0,0,1,49.8,18.765,9.491,9.491,0,0,1,40.319,28.245Z" transform="translate(0 21.889)"/>
      <ellipse id="Elipse_3-4" data-name="Elipse 3" cx="11" cy="11.5" rx="11" ry="11.5" transform="translate(13.976 -0.177)"/>
    </g>
    <line id="Línea_21" data-name="Línea 21" y1="16.711" transform="translate(1008.745 -596.686)" fill="none" stroke="#707070" stroke-linecap="round" stroke-width="2"/>
    <line id="Línea_22" data-name="Línea 22" y1="16.711" transform="translate(1008.745 -541.539)" fill="none" stroke="#707070" stroke-linecap="round" stroke-width="2"/>
    <line id="Línea_23" data-name="Línea 23" x1="16.711" transform="translate(1029.132 -560.589)" fill="none" stroke="#707070" stroke-linecap="round" stroke-width="2"/>
    <line id="Línea_24" data-name="Línea 24" x1="16.711" transform="translate(971.98 -560.589)" fill="none" stroke="#707070" stroke-linecap="round" stroke-width="2"/>
    <g id="Grupo_10" data-name="Grupo 10" transform="translate(995.543 -572.12)">
      <path id="Trazado_17" data-name="Trazado 17" d="M.385-7.914,10.412-4.572V8.8L.385,5.455Z" transform="translate(2.957 14.599)" fill="#fff" stroke="#707070" stroke-linecap="round" stroke-linejoin="round" stroke-width="2"/>
      <path id="Trazado_18" data-name="Trazado 18" d="M10.412-7.914.385-4.572V8.8L10.412,5.455Z" transform="translate(12.984 14.599)" fill="#fff" stroke="#707070" stroke-linecap="round" stroke-linejoin="round" stroke-width="2"/>
      <path id="Trazado_19" data-name="Trazado 19" d="M4.938-3.258,14.965.084l3.342-3.342L8.281-6.6Z" transform="translate(-4.938 13.285)" fill="#fff" stroke="#707070" stroke-linecap="round" stroke-linejoin="round" stroke-width="2"/>
      <path id="Trazado_22" data-name="Trazado 22" d="M4.938-3.258,14.965.084l3.342-3.342L8.281-6.6Z" transform="translate(8.431 6.6)" fill="#fff" stroke="#707070" stroke-linecap="round" stroke-linejoin="round" stroke-width="2"/>
      <path id="Trazado_20" data-name="Trazado 20" d="M18.307-3.258,8.281.084,4.938-3.258,14.965-6.6Z" transform="translate(8.431 13.285)" fill="#fff" stroke="#707070" stroke-linecap="round" stroke-linejoin="round" stroke-width="2"/>
      <path id="Trazado_21" data-name="Trazado 21" d="M18.307-3.258,8.281.084,4.938-3.258,14.965-6.6Z" transform="translate(-4.938 6.6)" fill="#fff" stroke="#707070" stroke-linecap="round" stroke-linejoin="round" stroke-width="2"/>
    </g>
  </g>
</svg>
